<?xml version="1.0" standalone="yes"?>

<svg version="1.1" viewBox="0.0 0.0 960.0 720.0" fill="none" stroke="none" stroke-linecap="square" stroke-miterlimit="10" xmlns="http://www.w3.org/2000/svg" xmlns:xlink="http://www.w3.org/1999/xlink"><clipPath id="p.0"><path d="m0 0l960.0 0l0 720.0l-960.0 0l0 -720.0z" clip-rule="nonzero"></path></clipPath><g clip-path="url(#p.0)"><path fill="#000000" fill-opacity="0.0" d="m0 0l960.0 0l0 720.0l-960.0 0z" fill-rule="nonzero"></path><path fill="#cfe2f3" d="m388.80316 123.50131l182.39368 0l0 90.645676l-182.39368 0z" fill-rule="nonzero"></path><path stroke="#000000" stroke-width="2.0" stroke-linejoin="round" stroke-linecap="butt" d="m388.80316 123.50131l182.39368 0l0 90.645676l-182.39368 0z" fill-rule="nonzero"></path><path fill="#000000" d="m445.79663 175.74414l0 -13.59375l4.109375 0l2.46875 9.265625l2.4375 -9.265625l4.125 0l0 13.59375l-2.546875 0l0 -10.703125l-2.703125 10.703125l-2.640625 0l-2.703125 -10.703125l0 10.703125l-2.546875 0zm14.962677 -5.0625q0 -1.296875 0.640625 -2.515625q0.640625 -1.21875 1.8125 -1.859375q1.171875 -0.640625 2.609375 -0.640625q2.25 0 3.671875 1.453125q1.421875 1.453125 1.421875 3.671875q0 2.234375 -1.4375 3.703125q-1.4375 1.46875 -3.625 1.46875q-1.359375 0 -2.59375 -0.609375q-1.21875 -0.609375 -1.859375 -1.796875q-0.640625 -1.1875 -0.640625 -2.875zm2.671875 0.140625q0 1.46875 0.6875 2.25q0.703125 0.765625 1.71875 0.765625q1.015625 0 1.703125 -0.765625q0.703125 -0.78125 0.703125 -2.265625q0 -1.453125 -0.703125 -2.234375q-0.6875 -0.78125 -1.703125 -0.78125q-1.015625 0 -1.71875 0.78125q-0.6875 0.78125 -0.6875 2.25zm18.364746 4.921875l-2.421875 0l0 -1.453125q-0.609375 0.84375 -1.4375 1.265625q-0.8125 0.40625 -1.640625 0.40625q-1.703125 0 -2.921875 -1.359375q-1.203125 -1.375 -1.203125 -3.828125q0 -2.5 1.171875 -3.796875q1.1875 -1.3125 2.984375 -1.3125q1.65625 0 2.859375 1.375l0 -4.890625l2.609375 0l0 13.59375zm-6.96875 -5.140625q0 1.578125 0.4375 2.28125q0.640625 1.015625 1.765625 1.015625q0.90625 0 1.53125 -0.765625q0.625 -0.765625 0.625 -2.28125q0 -1.703125 -0.609375 -2.4375q-0.609375 -0.75 -1.5625 -0.75q-0.9375 0 -1.5625 0.734375q-0.625 0.734375 -0.625 2.203125zm15.020966 2.0l2.609375 0.4375q-0.5 1.4375 -1.59375 2.1875q-1.078125 0.734375 -2.703125 0.734375q-2.5625 0 -3.796875 -1.671875q-0.96875 -1.34375 -0.96875 -3.40625q0 -2.4375 1.265625 -3.828125q1.28125 -1.390625 3.25 -1.390625q2.1875 0 3.453125 1.453125q1.28125 1.453125 1.234375 4.453125l-6.53125 0q0.015625 1.15625 0.625 1.8125q0.609375 0.640625 1.5 0.640625q0.609375 0 1.03125 -0.328125q0.421875 -0.34375 0.625 -1.09375zm0.15625 -2.625q-0.03125 -1.140625 -0.59375 -1.71875q-0.546875 -0.59375 -1.34375 -0.59375q-0.859375 0 -1.40625 0.625q-0.5625 0.609375 -0.546875 1.6875l3.890625 0zm4.5163574 5.765625l0 -13.59375l2.609375 0l0 13.59375l-2.609375 0z" fill-rule="nonzero"></path><path fill="#cfe2f3" d="m140.5853 310.0735l198.17285 0l18.614563 18.614563l0 93.070496l-216.78741 0z" fill-rule="nonzero"></path><path stroke="#000000" stroke-width="2.0" stroke-linejoin="round" stroke-linecap="butt" d="m140.5853 310.0735l198.17285 0l18.614563 18.614563l0 93.070496l-216.78741 0z" fill-rule="nonzero"></path><path fill="#000000" d="m221.82762 377.48965l-4.875 -13.59375l2.984375 0l3.4375 10.0625l3.328125 -10.0625l2.921875 0l-4.875 13.59375l-2.921875 0zm8.943573 -11.1875l0 -2.40625l2.609375 0l0 2.40625l-2.609375 0zm0 11.1875l0 -9.859375l2.609375 0l0 9.859375l-2.609375 0zm10.886429 -3.140625l2.609375 0.4375q-0.5 1.4375 -1.59375 2.1875q-1.078125 0.734375 -2.703125 0.734375q-2.5625 0 -3.796875 -1.671875q-0.96875 -1.34375 -0.96875 -3.40625q0 -2.4375 1.265625 -3.828125q1.28125 -1.390625 3.25 -1.390625q2.1875 0 3.453125 1.453125q1.28125 1.453125 1.234375 4.453125l-6.53125 0q0.015625 1.15625 0.625 1.8125q0.609375 0.640625 1.5 0.640625q0.609375 0 1.03125 -0.328125q0.421875 -0.34375 0.625 -1.09375zm0.15625 -2.625q-0.03125 -1.140625 -0.59375 -1.71875q-0.546875 -0.59375 -1.34375 -0.59375q-0.859375 0 -1.40625 0.625q-0.5625 0.609375 -0.546875 1.6875l3.890625 0zm6.360092 5.765625l-3.125 -9.859375l2.53125 0l1.859375 6.46875l1.6875 -6.46875l2.515625 0l1.640625 6.46875l1.8906403 -6.46875l2.5625 0l-3.15625 9.859375l-2.5156403 0l-1.6875 -6.34375l-1.671875 6.34375l-2.53125 0z" fill-rule="nonzero"></path><path fill="#cfe2f3" d="m685.8399 310.0735l208.91339 0l0 111.68506l-208.91339 0z" fill-rule="nonzero"></path><path stroke="#000000" stroke-width="2.0" stroke-linejoin="round" stroke-linecap="butt" d="m685.8399 310.0735l208.91339 0l0 111.68506l-208.91339 0z" fill-rule="nonzero"></path><path fill="#000000" d="m751.56775 367.836l2.671875 0.84375q-0.609375 2.21875 -2.046875 3.3125q-1.421875 1.078125 -3.609375 1.078125q-2.703125 0 -4.453125 -1.84375q-1.734375 -1.859375 -1.734375 -5.078125q0 -3.390625 1.75 -5.265625q1.75 -1.875 4.609375 -1.875q2.5 0 4.046875 1.46875q0.9375 0.875 1.390625 2.5l-2.71875 0.65625q-0.234375 -1.0625 -1.0 -1.671875q-0.765625 -0.609375 -1.859375 -0.609375q-1.515625 0 -2.453125 1.09375q-0.9375 1.078125 -0.9375 3.5q0 2.578125 0.921875 3.6875q0.921875 1.09375 2.40625 1.09375q1.109375 0 1.890625 -0.6875q0.78125 -0.703125 1.125 -2.203125zm4.1604614 -0.0625q0 -1.296875 0.640625 -2.515625q0.640625 -1.21875 1.8125 -1.859375q1.171875 -0.640625 2.609375 -0.640625q2.25 0 3.671875 1.453125q1.421875 1.453125 1.421875 3.671875q0 2.234375 -1.4375 3.703125q-1.4375 1.46875 -3.625 1.46875q-1.359375 0 -2.59375 -0.609375q-1.21875 -0.609375 -1.859375 -1.796875q-0.640625 -1.1875 -0.640625 -2.875zm2.671875 0.140625q0 1.46875 0.6875 2.25q0.703125 0.765625 1.71875 0.765625q1.015625 0 1.703125 -0.765625q0.703125 -0.78125 0.703125 -2.265625q0 -1.453125 -0.703125 -2.234375q-0.6875 -0.78125 -1.703125 -0.78125q-1.015625 0 -1.71875 0.78125q-0.6875 0.78125 -0.6875 2.25zm9.317871 4.921875l0 -13.59375l2.609375 0l0 13.59375l-2.609375 0zm5.1832886 0l0 -13.59375l2.609375 0l0 13.59375l-2.609375 0zm10.886414 -3.140625l2.609375 0.4375q-0.5 1.4375 -1.59375 2.1875q-1.078125 0.734375 -2.703125 0.734375q-2.5625 0 -3.796875 -1.671875q-0.96875 -1.34375 -0.96875 -3.40625q0 -2.4375 1.265625 -3.828125q1.28125 -1.390625 3.25 -1.390625q2.1875 0 3.453125 1.453125q1.28125 1.453125 1.234375 4.453125l-6.53125 0q0.015625 1.15625 0.625 1.8125q0.609375 0.640625 1.5 0.640625q0.609375 0 1.03125 -0.328125q0.421875 -0.34375 0.625 -1.09375zm0.15625 -2.625q-0.03125 -1.140625 -0.59375 -1.71875q-0.546875 -0.59375 -1.34375 -0.59375q-0.859375 0 -1.40625 0.625q-0.5625 0.609375 -0.546875 1.6875l3.890625 0zm13.110107 -1.171875l-2.5625 0.46875q-0.140625 -0.78125 -0.59375 -1.171875q-0.453125 -0.390625 -1.1875 -0.390625q-0.984375 0 -1.5625 0.671875q-0.578125 0.671875 -0.578125 2.25q0 1.765625 0.578125 2.484375q0.59375 0.71875 1.59375 0.71875q0.75 0 1.21875 -0.421875q0.46875 -0.421875 0.671875 -1.453125l2.546875 0.4375q-0.390625 1.765625 -1.53125 2.671875q-1.125 0.890625 -3.03125 0.890625q-2.15625 0 -3.453125 -1.359375q-1.28125 -1.359375 -1.28125 -3.78125q0 -2.4375 1.296875 -3.796875q1.296875 -1.359375 3.484375 -1.359375q1.796875 0 2.859375 0.78125q1.0625 0.765625 1.53125 2.359375zm6.2976074 -2.921875l0 2.078125l-1.78125 0l0 3.984375q0 1.203125 0.046875 1.40625q0.0625 0.1875 0.234375 0.328125q0.1875 0.125 0.453125 0.125q0.359375 0 1.046875 -0.25l0.21875 2.015625q-0.90625 0.390625 -2.0625 0.390625q-0.703125 0 -1.265625 -0.234375q-0.5625 -0.234375 -0.828125 -0.609375q-0.265625 -0.375 -0.375 -1.015625q-0.078125 -0.453125 -0.078125 -1.84375l0 -4.296875l-1.203125 0l0 -2.078125l1.203125 0l0 -1.953125l2.609375 -1.515625l0 3.46875l1.78125 0zm1.6970215 -1.328125l0 -2.40625l2.609375 0l0 2.40625l-2.609375 0zm0 11.1875l0 -9.859375l2.609375 0l0 9.859375l-2.609375 0zm4.5895386 -5.0625q0 -1.296875 0.640625 -2.515625q0.640625 -1.21875 1.8125 -1.859375q1.171875 -0.640625 2.609375 -0.640625q2.25 0 3.671875 1.453125q1.421875 1.453125 1.421875 3.671875q0 2.234375 -1.4375 3.703125q-1.4375 1.46875 -3.625 1.46875q-1.359375 0 -2.59375 -0.609375q-1.21875 -0.609375 -1.859375 -1.796875q-0.640625 -1.1875 -0.640625 -2.875zm2.671875 0.140625q0 1.46875 0.6875 2.25q0.703125 0.765625 1.71875 0.765625q1.015625 0 1.703125 -0.765625q0.703125 -0.78125 0.703125 -2.265625q0 -1.453125 -0.703125 -2.234375q-0.6875 -0.78125 -1.703125 -0.78125q-1.015625 0 -1.71875 0.78125q-0.6875 0.78125 -0.6875 2.25zm18.286621 4.921875l-2.609375 0l0 -5.03125q0 -1.59375 -0.171875 -2.0625q-0.15625 -0.46875 -0.53125 -0.71875q-0.375 -0.265625 -0.90625 -0.265625q-0.6875 0 -1.234375 0.375q-0.53125 0.359375 -0.734375 0.984375q-0.1875 0.609375 -0.1875 2.25l0 4.46875l-2.609375 0l0 -9.859375l2.421875 0l0 1.453125q1.296875 -1.671875 3.25 -1.671875q0.859375 0 1.578125 0.3125q0.71875 0.3125 1.078125 0.796875q0.359375 0.484375 0.5 1.09375q0.15625 0.609375 0.15625 1.75l0 6.125z" fill-rule="nonzero"></path><path fill="#cfe2f3" d="m151.96391 551.4974l197.72441 0l0 108.40155l-197.72441 0z" fill-rule="nonzero"></path><path fill="#d8e7f5" d="m133.89699 533.4304l233.85826 0l-18.066925 18.066956l-197.72441 0z" fill-rule="nonzero"></path><path fill="#a5b4c2" d="m133.89699 677.9659l18.066925 -18.066956l197.72441 0l18.066925 18.066956z" fill-rule="nonzero"></path><path fill="#e2edf7" d="m133.89699 533.4304l18.066925 18.066956l0 108.40155l-18.066925 18.066956z" fill-rule="nonzero"></path><path fill="#7c8791" d="m367.75525 533.4304l0 144.53546l-18.066925 -18.066956l0 -108.40155z" fill-rule="nonzero"></path><path fill="#000000" fill-opacity="0.0" d="m133.89699 533.4304l233.85826 0l0 144.53546l-233.85826 0zm18.066925 18.066956l197.72441 0l0 108.40155l-197.72441 0zm-18.066925 -18.066956l18.066925 18.066956m-18.066925 126.468506l18.066925 -18.066956m215.79134 -126.468506l-18.066925 18.066956m18.066925 126.468506l-18.066925 -18.066956" fill-rule="nonzero"></path><path stroke="#000000" stroke-width="2.0" stroke-linejoin="round" stroke-linecap="butt" d="m133.89699 533.4304l233.85826 0l0 144.53546l-233.85826 0zm18.066925 18.066956l197.72441 0l0 108.40155l-197.72441 0zm-18.066925 -18.066956l18.066925 18.066956m-18.066925 126.468506l18.066925 -18.066956m215.79134 -126.468506l-18.066925 18.066956m18.066925 126.468506l-18.066925 -18.066956" fill-rule="nonzero"></path><path fill="#000000" d="m219.35526 599.0244l5.015625 0q1.703125 0 2.59375 0.25q1.1875 0.359375 2.046875 1.265625q0.859375 0.890625 1.296875 2.203125q0.453125 1.296875 0.453125 3.203125q0 1.6875 -0.421875 2.890625q-0.515625 1.484375 -1.453125 2.40625q-0.71875 0.703125 -1.9375 1.09375q-0.90625 0.28125 -2.421875 0.28125l-5.171875 0l0 -13.59375zm2.75 2.296875l0 9.0l2.046875 0q1.140625 0 1.65625 -0.125q0.671875 -0.171875 1.109375 -0.5625q0.4375 -0.40625 0.71875 -1.3125q0.28125 -0.921875 0.28125 -2.5q0 -1.578125 -0.28125 -2.421875q-0.28125 -0.84375 -0.78125 -1.3125q-0.5 -0.46875 -1.265625 -0.640625q-0.578125 -0.125 -2.25 -0.125l-1.234375 0zm10.176071 4.578125q0 -2.078125 0.625 -3.484375q0.453125 -1.046875 1.25 -1.859375q0.8125 -0.828125 1.765625 -1.234375q1.28125 -0.53125 2.9375 -0.53125q3.0 0 4.796875 1.859375q1.8125 1.859375 1.8125 5.1875q0 3.296875 -1.796875 5.15625q-1.78125 1.859375 -4.78125 1.859375q-3.03125 0 -4.828125 -1.84375q-1.78125 -1.859375 -1.78125 -5.109375zm2.828125 -0.09375q0 2.3125 1.0625 3.515625q1.078125 1.1875 2.71875 1.1875q1.640625 0 2.6875 -1.1875q1.046875 -1.1875 1.046875 -3.546875q0 -2.34375 -1.03125 -3.484375q-1.015625 -1.15625 -2.703125 -1.15625q-1.703125 0 -2.75 1.171875q-1.03125 1.15625 -1.03125 3.5zm12.198929 6.8125l0 -13.59375l4.109375 0l2.46875 9.265625l2.4375 -9.265625l4.125 0l0 13.59375l-2.546875 0l0 -10.703125l-2.703125 10.703125l-2.640625 0l-2.703125 -10.703125l0 10.703125l-2.546875 0z" fill-rule="nonzero"></path><path fill="#cfe2f3" d="m597.81104 591.2467l108.39368 -72.2677l108.39374 72.2677l-108.39374 72.26776z" fill-rule="nonzero"></path><path stroke="#000000" stroke-width="2.0" stroke-linejoin="round" stroke-linecap="butt" d="m597.81104 591.2467l108.39368 -72.2677l108.39374 72.2677l-108.39374 72.26776z" fill-rule="nonzero"></path><path fill="#000000" d="m672.76514 598.1667l0 -13.59375l5.78125 0q2.1875 0 3.171875 0.359375q0.984375 0.359375 1.578125 1.296875q0.59375 0.9375 0.59375 2.15625q0 1.53125 -0.90625 2.53125q-0.890625 0.984375 -2.6875 1.25q0.890625 0.515625 1.46875 1.140625q0.578125 0.625 1.5625 2.203125l1.671875 2.65625l-3.296875 0l-1.984375 -2.953125q-1.046875 -1.59375 -1.4375 -2.0q-0.390625 -0.421875 -0.828125 -0.5625q-0.4375 -0.15625 -1.390625 -0.15625l-0.546875 0l0 5.671875l-2.75 0zm2.75 -7.84375l2.03125 0q1.96875 0 2.453125 -0.171875q0.5 -0.171875 0.78125 -0.578125q0.28125 -0.40625 0.28125 -1.015625q0 -0.6875 -0.375 -1.109375q-0.359375 -0.421875 -1.03125 -0.53125q-0.328125 -0.046875 -2.0 -0.046875l-2.140625 0l0 3.453125zm10.0979 2.78125q0 -1.296875 0.640625 -2.515625q0.640625 -1.21875 1.8125 -1.859375q1.171875 -0.640625 2.609375 -0.640625q2.25 0 3.671875 1.453125q1.421875 1.453125 1.421875 3.671875q0 2.234375 -1.4375 3.703125q-1.4375 1.46875 -3.625 1.46875q-1.359375 0 -2.59375 -0.609375q-1.21875 -0.609375 -1.859375 -1.796875q-0.640625 -1.1875 -0.640625 -2.875zm2.671875 0.140625q0 1.46875 0.6875 2.25q0.703125 0.765625 1.71875 0.765625q1.015625 0 1.703125 -0.765625q0.703125 -0.78125 0.703125 -2.265625q0 -1.453125 -0.703125 -2.234375q-0.6875 -0.78125 -1.703125 -0.78125q-1.015625 0 -1.71875 0.78125q-0.6875 0.78125 -0.6875 2.25zm15.802246 4.921875l0 -1.46875q-0.53125 0.78125 -1.40625 1.234375q-0.875 0.453125 -1.859375 0.453125q-0.984375 0 -1.78125 -0.4375q-0.78125 -0.4375 -1.140625 -1.21875q-0.34375 -0.796875 -0.34375 -2.1875l0 -6.234375l2.609375 0l0 4.53125q0 2.078125 0.140625 2.546875q0.140625 0.46875 0.515625 0.75q0.390625 0.265625 0.96875 0.265625q0.671875 0 1.203125 -0.359375q0.53125 -0.375 0.71875 -0.90625q0.1875 -0.546875 0.1875 -2.671875l0 -4.15625l2.609375 0l0 9.859375l-2.421875 0zm9.427246 -9.859375l0 2.078125l-1.78125 0l0 3.984375q0 1.203125 0.046875 1.40625q0.0625 0.1875 0.234375 0.328125q0.1875 0.125 0.453125 0.125q0.359375 0 1.046875 -0.25l0.21875 2.015625q-0.90625 0.390625 -2.0625 0.390625q-0.703125 0 -1.265625 -0.234375q-0.5625 -0.234375 -0.828125 -0.609375q-0.265625 -0.375 -0.375 -1.015625q-0.078125 -0.453125 -0.078125 -1.84375l0 -4.296875l-1.203125 0l0 -2.078125l1.203125 0l0 -1.953125l2.609375 -1.515625l0 3.46875l1.78125 0zm7.4001465 6.71875l2.609375 0.4375q-0.5 1.4375 -1.59375 2.1875q-1.078125 0.734375 -2.703125 0.734375q-2.5625 0 -3.796875 -1.671875q-0.96875 -1.34375 -0.96875 -3.40625q0 -2.4375 1.265625 -3.828125q1.28125 -1.390625 3.25 -1.390625q2.1875 0 3.453125 1.453125q1.28125 1.453125 1.234375 4.453125l-6.53125 0q0.015625 1.15625 0.625 1.8125q0.609375 0.640625 1.5 0.640625q0.609375 0 1.03125 -0.328125q0.421875 -0.34375 0.625 -1.09375zm0.15625 -2.625q-0.03125 -1.140625 -0.59375 -1.71875q-0.546875 -0.59375 -1.34375 -0.59375q-0.859375 0 -1.40625 0.625q-0.5625 0.609375 -0.546875 1.6875l3.890625 0zm7.0163574 5.765625l-2.609375 0l0 -9.859375l2.421875 0l0 1.40625q0.625 -0.984375 1.109375 -1.296875q0.5 -0.328125 1.140625 -0.328125q0.890625 0 1.71875 0.5l-0.8125 2.265625q-0.65625 -0.421875 -1.21875 -0.421875q-0.546875 0 -0.9375 0.296875q-0.375 0.296875 -0.59375 1.09375q-0.21875 0.78125 -0.21875 3.296875l0 3.046875z" fill-rule="nonzero"></path><path fill="#000000" fill-opacity="0.0" d="m387.15222 167.30183l-142.42519 142.77165" fill-rule="nonzero"></path><path stroke="#000000" stroke-width="2.0" stroke-linejoin="round" stroke-linecap="butt" d="m387.15222 167.30183l-133.95023 134.27608" fill-rule="evenodd"></path><path fill="#000000" stroke="#000000" stroke-width="2.0" stroke-linecap="butt" d="m250.86327 299.24484l-4.0713043 8.7586975l8.748779 -4.09256z" fill-rule="evenodd"></path><path fill="#000000" fill-opacity="0.0" d="m248.979 421.75854l1.8582611 111.685" fill-rule="nonzero"></path><path stroke="#000000" stroke-width="2.0" stroke-linejoin="round" stroke-linecap="butt" d="m248.979 421.75854l1.6586304 99.68671" fill-rule="evenodd"></path><path fill="#000000" stroke="#000000" stroke-width="2.0" stroke-linecap="butt" d="m247.33463 521.5002l3.45401 9.0199585l3.152008 -9.129883z" fill-rule="evenodd"></path><path fill="#000000" fill-opacity="0.0" d="m706.2047 518.979l-348.81888 -153.07086" fill-rule="nonzero"></path><path stroke="#000000" stroke-width="2.0" stroke-linejoin="round" stroke-linecap="butt" d="m706.2047 518.979l-337.83038 -148.24881" fill-rule="evenodd"></path><path fill="#000000" stroke="#000000" stroke-width="2.0" stroke-linecap="butt" d="m369.7018 367.70517l-9.638641 -0.62213135l6.983734 6.67218z" fill-rule="evenodd"></path><path fill="#000000" fill-opacity="0.0" d="m790.2966 310.0735l-217.44879 -132.6929" fill-rule="nonzero"></path><path stroke="#000000" stroke-width="2.0" stroke-linejoin="round" stroke-linecap="butt" d="m790.2966 310.0735l-211.59796 -129.12257" fill-rule="evenodd"></path><path fill="#000000" stroke="#000000" stroke-width="2.0" stroke-linecap="butt" d="m578.6986 180.95091l3.0915527 -0.7483368l-6.446594 -1.298996l4.1033936 5.138855z" fill-rule="evenodd"></path><path fill="#000000" fill-opacity="0.0" d="m737.9737 216.2316l-76.409424 -48.755905l-22.362244 35.08661l76.409485 48.755905z" fill-rule="nonzero"></path><path fill="#000000" d="m663.13153 196.64664l1.3313599 1.1089935q-1.1486816 1.0464172 -2.5373535 1.1611938q-1.3671265 0.11001587 -2.81604 -0.8145294q-1.817688 -1.1598663 -2.1708374 -2.9606476q-0.35308838 -1.8007812 0.94018555 -3.8299408q1.3352661 -2.095047 3.1411743 -2.5737762q1.8191528 -0.47032166 3.5446777 0.63072205q1.6727905 1.0674133 2.0043335 2.8729706q0.33154297 1.805542 -0.9869385 3.874237q-0.07556152 0.11859131 -0.24829102 0.36053467l-6.190796 -3.9502716q-0.79437256 1.4207611 -0.55810547 2.5909271q0.23620605 1.1701508 1.2767944 1.834137q0.76397705 0.48747253 1.5559692 0.43678284q0.8135376 -0.0554657 1.7138672 -0.741333zm-3.1704712 -5.2296143l4.6364746 2.9585114q0.571228 -1.0997772 0.47247314 -1.9041901q-0.15106201 -1.245575 -1.2312012 -1.9347687q-0.96154785 -0.6135559 -2.0531616 -0.38337708q-1.0701294 0.22538757 -1.824585 1.2638245zm6.8273315 11.325577l2.1377563 -10.331451l1.4884644 0.94973755l-1.3830566 6.1237335q-0.22247314 0.9886627 -0.5396118 2.0095825q0.60424805 -0.5411377 1.5346069 -1.2449646l5.0772095 -3.896225l1.4489136 0.92453l-8.447144 6.3055267l-1.3171387 -0.84046936zm12.953552 4.5029144l1.3313599 1.1090088q-1.1486816 1.046402 -2.5373535 1.1611786q-1.3671265 0.11001587 -2.81604 -0.81451416q-1.817749 -1.1598663 -2.1708374 -2.9606476q-0.35308838 -1.8007965 0.94018555 -3.829956q1.3352661 -2.0950317 3.1411743 -2.573761q1.8190918 -0.47032166 3.5446167 0.6307068q1.6728516 1.0674133 2.0043945 2.8729706q0.33154297 1.8055573 -0.9869385 3.874237q-0.07556152 0.11859131 -0.24829102 0.36053467l-6.190796 -3.9502716q-0.79437256 1.4207764 -0.5581665 2.5909271q0.23626709 1.1701508 1.2768555 1.834137q0.76397705 0.4874878 1.5559082 0.4367981q0.81359863 -0.0554657 1.7139282 -0.74134827zm-3.1705322 -5.229599l4.6365356 2.958496q0.571228 -1.099762 0.47247314 -1.9041748q-0.15112305 -1.2455902 -1.2312012 -1.9347839q-0.96154785 -0.6135559 -2.0532227 -0.38337708q-1.0700684 0.22540283 -1.824585 1.2638397zm4.522278 9.854706l5.299011 -8.314285l1.2645264 0.8068695l-0.75579834 1.1858673q1.7954102 -0.7819977 3.520935 0.31903076q0.75079346 0.4790802 1.206665 1.1592102q0.46429443 0.66696167 0.4817505 1.3082733q0.039001465 0.63653564 -0.20721436 1.3135223q-0.1729126 0.4457245 -0.7943115 1.4207764l-3.2583618 5.1124268l-1.4094238 -0.8993225l3.2247925 -5.059723q0.5458374 -0.8564606 0.6433716 -1.3873749q0.119018555 -0.53567505 -0.1428833 -1.0549774q-0.2619629 -0.51930237 -0.82836914 -0.88072205q-0.8956909 -0.57151794 -1.9154053 -0.42518616q-1.0065308 0.15475464 -2.031067 1.7622681l-2.888855 4.532669l-1.4093628 -0.8993225zm12.635193 6.2830048l-0.6002197 1.3778229q-0.66833496 -0.2596283 -1.1425171 -0.5621948q-0.76397705 -0.4874878 -1.0343018 -0.9936218q-0.2619629 -0.51930237 -0.18963623 -1.0106812q0.08068848 -0.5045471 0.8952637 -1.7826538l3.040039 -4.7698517l-1.0405884 -0.6639862l0.70544434 -1.1068115l1.0405273 0.6639862l1.3101196 -2.0555115l1.9336548 0.04762268l-1.8475342 2.8988037l1.4225464 0.90771484l-0.7053833 1.1068268l-1.4225464 -0.9077301l-3.090454 4.8489075q-0.3862915 0.6061096 -0.42962646 0.8194275q-0.030090332 0.22172546 0.073913574 0.4363861q0.10406494 0.2146759 0.42022705 0.4163971q0.22387695 0.1428833 0.6610718 0.32914734zm1.4934692 -0.7522125l1.5390015 0.66690063q-0.41888428 0.9189453 -0.17755127 1.703125q0.26293945 0.77941895 1.2244873 1.3929749q0.9746704 0.6219635 1.6876221 0.52082825q0.72613525 -0.0927124 1.0620728 -0.61976624q0.30230713 -0.47434998 0.0703125 -1.0115967q-0.17218018 -0.36938477 -1.1333618 -1.3904877q-1.3023682 -1.3870544 -1.7319336 -2.0503845q-0.40795898 -0.6680908 -0.40496826 -1.3705139q0.024536133 -0.70718384 0.41082764 -1.3132935q0.35272217 -0.553421 0.9053345 -0.8680725q0.56573486 -0.3062439 1.2019653 -0.3451233q0.48046875 -0.027053833 1.1560059 0.16305542q0.67559814 0.19012451 1.3209839 0.6019592q0.98791504 0.63035583 1.5407715 1.3909149q0.5612793 0.7473755 0.5930176 1.4534149q0.053344727 0.70129395 -0.32720947 1.5890961l-1.4874268 -0.68963623q0.31085205 -0.69129944 0.07659912 -1.3412323q-0.21270752 -0.6546936 -1.0293579 -1.1757965q-0.97473145 -0.6219635 -1.5930176 -0.5531006q-0.6098633 0.05567932 -0.8786011 0.47732544q-0.17633057 0.27670288 -0.14788818 0.6099701q0.028503418 0.33325195 0.30493164 0.7135315q0.16033936 0.2135315 1.0029907 1.1589966q1.2365112 1.3450317 1.6696777 1.9736023q0.4331665 0.62857056 0.45178223 1.3262177q0.03173828 0.7060394 -0.43017578 1.4307404q-0.44506836 0.698349 -1.2564697 1.0702667q-0.80303955 0.3587494 -1.798523 0.20544434q-0.9871216 -0.16647339 -1.961853 -0.7884369q-1.6201172 -1.0337982 -2.0479736 -2.2521057q-0.4147339 -1.2098999 0.18792725 -2.6788177z" fill-rule="nonzero"></path><path fill="#000000" fill-opacity="0.0" d="m228.20865 245.39021l66.20474 -63.84253l29.165344 30.267715l-66.20471 63.84253z" fill-rule="nonzero"></path><path fill="#000000" d="m256.92395 250.69067l1.3890076 -1.035553q0.74838257 1.3621521 0.5352783 2.7398071q-0.21270752 1.3555603 -1.4499207 2.5486145q-1.5521393 1.4967651 -3.384735 1.4189148q-1.8325806 -0.07785034 -3.5022125 -1.8105927q-1.7238312 -1.7889862 -1.7668762 -3.6576538q-0.031784058 -1.8795166 1.4416199 -3.300354q1.428421 -1.3774414 3.2605896 -1.2774963q1.8321838 0.09994507 3.5343475 1.8664398q0.0975647 0.101257324 0.29232788 0.32588196l-5.2862854 5.0976562q1.1950378 1.1050873 2.387436 1.1490784q1.1924133 0.04399109 2.0809479 -0.81285095q0.65234375 -0.6290741 0.7882385 -1.4113007q0.1362915 -0.80433655 -0.31976318 -1.8405914zm-5.8234406 1.8604584l3.959076 -3.8178253q-0.93522644 -0.8129425 -1.7400665 -0.90509033q-1.2458038 -0.1444397 -2.1680908 0.7449341q-0.8210602 0.7917633 -0.85258484 1.907486q-0.03112793 1.0936279 0.80166626 2.0704956zm12.602524 -3.9912415l-9.540512 -4.4966736l1.2709503 -1.2256012l5.627838 2.7780151q0.90878296 0.44773865 1.8267822 0.9951019q-0.38461304 -0.7144165 -0.85110474 -1.7840271l-2.5994568 -5.850281l1.2372131 -1.1930695l4.153015 9.691925l-1.1247253 1.08461zm7.4043884 -11.5466l1.388977 -1.035553q0.74838257 1.3621521 0.5352783 2.7398071q-0.21270752 1.355545 -1.4499207 2.5486145q-1.552124 1.4967651 -3.3847046 1.4189148q-1.8326111 -0.07785034 -3.5022278 -1.8105927q-1.7238464 -1.7889862 -1.7668762 -3.6576538q-0.031799316 -1.8795166 1.4416199 -3.300354q1.4284058 -1.3774414 3.2605896 -1.2774963q1.8321838 0.09994507 3.5343323 1.8664398q0.097595215 0.101257324 0.29232788 0.32588196l-5.286255 5.0976562q1.1950073 1.105072 2.3874207 1.1490784q1.1924133 0.04399109 2.0809631 -0.81285095q0.65234375 -0.6290741 0.7882385 -1.4113159q0.1362915 -0.8043213 -0.31976318 -1.8405762zm-5.823456 1.8604431l3.959076 -3.81781q-0.9352417 -0.8129425 -1.7400513 -0.90509033q-1.2458191 -0.1444397 -2.1680908 0.7449341q-0.82107544 0.7917633 -0.8526001 1.907486q-0.03112793 1.0936279 0.80166626 2.0704803zm10.634247 -2.0931702l-6.841156 -7.099716l1.0797424 -1.0412292l0.97576904 1.0126343q-0.34024048 -1.9293823 1.1331787 -3.3502197q0.64108276 -0.6182251 1.4086609 -0.9025421q0.75668335 -0.29559326 1.3840027 -0.16249084q0.62771606 0.11099243 1.2280579 0.5088501q0.39276123 0.2724762 1.1950378 1.1050873l4.206604 4.3655853l-1.2034607 1.1605377l-4.1632385 -4.320587q-0.7047119 -0.73135376 -1.197876 -0.95040894q-0.49273682 -0.2411499 -1.0586548 -0.10784912q-0.56591797 0.13330078 -1.0495605 0.5996704q-0.764801 0.73753357 -0.86099243 1.7636566q-0.0848999 1.015274 1.237793 2.3879547l3.7295532 3.8705292l-1.2034607 1.1605377zm9.059845 -10.820419l1.1986694 0.9062042q-0.40853882 0.5893402 -0.81344604 0.97979736q-0.65237427 0.6290741 -1.207428 0.7736206q-0.56591797 0.13330078 -1.0265503 -0.052001953q-0.47146606 -0.19654846 -1.5231018 -1.2879486l-3.9247131 -4.073059l-0.8885498 0.85684204l-0.91070557 -0.9451294l0.8885498 -0.85684204l-1.6913147 -1.7552338l0.49835205 -1.8697815l2.3851929 2.4753418l1.2146912 -1.1713715l0.91070557 0.9451294l-1.2146912 1.1713715l3.989746 4.140564q0.49871826 0.51756287 0.69589233 0.6096039q0.20843506 0.08119202 0.44137573 0.030212402q0.23297119 -0.050979614 0.50289917 -0.31129456q0.19122314 -0.1843872 0.47442627 -0.5660248zm-0.38186646 -1.6287537l1.007904 -1.3409576q0.795105 0.6224823 1.613617 0.57118225q0.8189392 -0.07337952 1.6399841 -0.8651428q0.8323059 -0.8026123 0.9007263 -1.5197754q0.07965088 -0.7279968 -0.35403442 -1.1780548q-0.3902893 -0.4050598 -0.9666443 -0.30511475q-0.39923096 0.081085205 -1.616272 0.77716064q-1.6524353 0.94229126 -2.3974915 1.2049255q-0.7446594 0.24053955 -1.4265747 0.073287964q-0.68151855 -0.18934631 -1.1802368 -0.7069092q-0.45535278 -0.4725647 -0.631958 -1.0837097q-0.16534424 -0.6219635 -0.054382324 -1.2499237q0.08602905 -0.4736786 0.42871094 -1.0863342q0.3427124 -0.61265564 0.89382935 -1.144104q0.8435364 -0.8134613 1.7119141 -1.1733093q0.85754395 -0.37109375 1.551117 -0.23678589q0.6939697 0.112213135 1.467804 0.690094l-1.0179443 1.2855225q-0.5991516 -0.4641571 -1.2855225 -0.38833618q-0.6859741 0.053726196 -1.3833313 0.72618103q-0.8323059 0.8026123 -0.9099121 1.4201202q-0.08847046 0.6062622 0.25845337 0.96632385q0.22769165 0.23628235 0.558197 0.28656006q0.3305359 0.05026245 0.7647095 -0.12965393q0.24502563 -0.106033325 1.3608398 -0.70448303q1.5961914 -0.8880615 2.308319 -1.1623535q0.7121277 -0.274292 1.3944702 -0.12913513q0.693573 0.13430786 1.289856 0.7531433q0.5746155 0.59632874 0.7463684 1.4726257q0.16088867 0.86505127 -0.2208252 1.7975159q-0.3925476 0.9212036 -1.2248535 1.7238159q-1.3834229 1.3340607 -2.66745 1.4652252q-1.2727661 0.12031555 -2.5593872 -0.80960083z" fill-rule="nonzero"></path><path fill="#000000" fill-opacity="0.0" d="m490.85037 365.9082l83.3071 38.929108l-21.795288 46.55121l-83.3071 -38.92914z" fill-rule="nonzero"></path><path fill="#000000" d="m496.18195 394.6127l1.4643555 0.92575073q-1.0040588 1.1864929 -2.3669128 1.4809875q-1.342041 0.28692627 -2.89917 -0.44070435q-1.9534607 -0.9128418 -2.5369263 -2.6514893q-0.58343506 -1.738617 0.43685913 -3.9178467q1.0534363 -2.2499695 2.783081 -2.9594116q1.7438049 -0.70285034 3.5982056 0.16369629q1.79776 0.8400879 2.360443 2.5862427q0.5626831 1.7461548 -0.47750854 3.9678345q-0.059631348 0.12734985 -0.19967651 0.38961792l-6.6531677 -3.1090088q-0.604126 1.511383 -0.21826172 2.6402588q0.38586426 1.1288757 1.5041504 1.6514587q0.8210449 0.383667 1.6001892 0.23034668q0.79992676 -0.16085815 1.6043396 -0.95773315zm-3.8224487 -4.7698975l4.982788 2.3284302q0.4243164 -1.1642151 0.22219849 -1.9485474q-0.31115723 -1.2146912 -1.4719238 -1.7571106q-1.0333557 -0.48291016 -2.0865784 -0.11273193q-1.0324402 0.36264038 -1.6464844 1.4899597zm8.239502 10.335083l0.78326416 -10.516724l1.5996094 0.74749756l-0.57925415 6.2486267q-0.0927124 1.008728 -0.275177 2.061737q0.52944946 -0.6149292 1.3612671 -1.4335022l4.532593 -4.5219727l1.5570984 0.72766113l-7.5638123 7.348175l-1.4155884 -0.661499zm13.433899 2.7765198l1.4644165 0.92575073q-1.0040894 1.1864929 -2.3669434 1.4809875q-1.342041 0.28692627 -2.89917 -0.44070435q-1.9534912 -0.9128418 -2.5369263 -2.6514893q-0.5834656 -1.738617 0.43685913 -3.9178467q1.0534363 -2.2499695 2.783081 -2.9594116q1.7438049 -0.70285034 3.598175 0.16369629q1.7977905 0.8400879 2.3604736 2.5862427q0.5626831 1.7461548 -0.47753906 3.9678345q-0.059631348 0.12734985 -0.199646 0.38961792l-6.6531677 -3.1090088q-0.604126 1.511383 -0.21826172 2.6402588q0.38586426 1.1288757 1.5041504 1.6514587q0.8210449 0.383667 1.6001892 0.23034668q0.79992676 -0.16085815 1.6043091 -0.95773315zm-3.8224182 -4.769928l4.9828186 2.3284607q0.4243164 -1.1642151 0.22216797 -1.9485474q-0.31115723 -1.2146912 -1.4719238 -1.7571106q-1.0333862 -0.48291016 -2.0865784 -0.11273193q-1.0324402 0.36264038 -1.6464844 1.4899292zm5.7622375 9.177521l4.180664 -8.929169l1.3589478 0.6350403l-0.5963135 1.2735596q1.6799316 -1.0086365 3.5343628 -0.14208984q0.80688477 0.3770752 1.347168 0.99176025q0.5469971 0.6005249 0.64733887 1.2337952q0.12109375 0.6257324 -0.03552246 1.3286743q-0.11383057 0.46420288 -0.604126 1.5113525l-2.5706177 5.490509l-1.5146484 -0.7077942l2.5441284 -5.433899q0.43066406 -0.9197998 0.45861816 -1.4586182q0.04876709 -0.5463562 -0.2783203 -1.0269165q-0.3270874 -0.4805298 -0.935791 -0.76498413q-0.96258545 -0.44979858 -1.9552612 -0.1720581q-0.9785156 0.2843628 -1.7868042 2.0107422l-2.2791748 4.8678894l-1.5146484 -0.7077942zm13.348511 4.5820007l-0.41705322 1.4435425q-0.6966553 -0.1703186 -1.2062378 -0.40844727q-0.8210449 -0.383667 -1.1547852 -0.85006714q-0.3270874 -0.4805298 -0.31896973 -0.9768982q0.014709473 -0.51049805 0.65740967 -1.8831482l2.3983765 -5.122589l-1.1182861 -0.5225525l0.55651855 -1.1886902l1.1182861 0.522583l1.0335693 -2.2075195l1.9245605 -0.20446777l-1.4575806 3.1131592l1.5288086 0.7144165l-0.5565796 1.1886597l-1.5288086 -0.714386l-2.4381104 5.207489q-0.30480957 0.65093994 -0.3201294 0.86795044q-0.0012207031 0.22366333 0.12982178 0.42285156q0.13104248 0.19921875 0.47076416 0.3579712q0.24066162 0.112457275 0.6984253 0.24014282zm1.3842773 -0.93981934l1.6131592 0.4606018q-0.29663086 0.96517944 0.04437256 1.710907q0.36169434 0.7381897 1.3950806 1.2210693q1.0475464 0.48950195 1.7417603 0.2965088q0.708313 -0.18637085 0.97332764 -0.7524109q0.23852539 -0.50942993 -0.061157227 -1.0116577q-0.21868896 -0.34362793 -1.3044434 -1.2304688q-1.4716187 -1.2050781 -1.9836426 -1.8065186q-0.49127197 -0.6089783 -0.57922363 -1.305481q-0.06719971 -0.70401 0.23760986 -1.35495q0.27825928 -0.59432983 0.78570557 -0.9780884q0.52160645 -0.37713623 1.1477661 -0.4984436q0.47314453 -0.08935547 1.1679688 0.011138916q0.6948242 0.10046387 1.3884888 0.42459106q1.0616455 0.49612427 1.7086182 1.177887q0.65356445 0.66760254 0.77648926 1.3631592q0.14367676 0.6880493 -0.118896484 1.6173706l-1.5649414 -0.48983765q0.2189331 -0.7255249 -0.09765625 -1.3391113q-0.29577637 -0.6211548 -1.1734009 -1.0312805q-1.0475464 -0.48950195 -1.6519775 -0.3407898q-0.59783936 0.134552 -0.8098755 0.58740234q-0.13909912 0.29714966 -0.06774902 0.62371826q0.07141113 0.3265381 0.39489746 0.66741943q0.18670654 0.19073486 1.1451416 1.0180359q1.4008179 1.1719971 1.9119263 1.7385254q0.5111084 0.56655884 0.61987305 1.2554932q0.122924805 0.69558716 -0.24151611 1.473877q-0.35113525 0.7499695 -1.1079712 1.2241516q-0.7501831 0.46002197 -1.7576294 0.4376831q-1.0008545 -0.03652954 -2.0484009 -0.5260315q-1.7411499 -0.81362915 -2.3233643 -1.9653015q-0.5680542 -1.1450195 -0.16033936 -2.6791687z" fill-rule="nonzero"></path><path fill="#000000" fill-opacity="0.0" d="m212.41995 513.0656l-0.03149414 -101.82678l44.44095 0l0.03149414 101.82678z" fill-rule="nonzero"></path><path fill="#000000" d="m236.16281 496.0656l0.21821594 -1.71875q1.5001373 0.40625 2.344223 1.515625q0.8284607 1.09375 0.82899475 2.8125q6.713867E-4 2.15625 -1.3270721 3.421875q-1.3277283 1.265625 -3.7339783 1.265625q-2.484375 0 -3.8597717 -1.265625q-1.3753967 -1.28125 -1.3760223 -3.328125q-6.1035156E-4 -1.984375 1.3427429 -3.234375q1.3433685 -1.25 3.7964935 -1.25q0.140625 0 0.4375 0.015625l0.0022735596 7.34375q1.6249695 -0.09375 2.4841003 -0.921875q0.8591156 -0.828125 0.85873413 -2.0625q-2.89917E-4 -0.90625 -0.46923828 -1.546875q-0.48457336 -0.65625 -1.5471954 -1.046875zm-2.7014313 5.484375l-0.0016937256 -5.5q-1.2343445 0.109375 -1.8591919 0.625q-0.9684906 0.796875 -0.9680939 2.078125q3.5095215E-4 1.140625 0.7818451 1.9375q0.76586914 0.78125 2.0471344 0.859375zm5.871338 -11.844452l-9.858215 3.75l-5.493164E-4 -1.765625l5.905594 -2.125q0.9530182 -0.34375 1.9841919 -0.625q-0.7813263 -0.21875 -1.8751984 -0.625l-6.0162964 -2.1875l-5.340576E-4 -1.71875l9.860535 3.734375l4.7302246E-4 1.5625zm-3.1759949 -13.34375l0.21821594 -1.71875q1.5001221 0.40625 2.344223 1.515625q0.8284607 1.09375 0.82899475 2.8125q6.5612793E-4 2.15625 -1.3270721 3.421875q-1.3277283 1.265625 -3.7339783 1.265625q-2.484375 0 -3.8597717 -1.265625q-1.3753967 -1.28125 -1.3760223 -3.328125q-6.2561035E-4 -1.984375 1.3427429 -3.234375q1.3433685 -1.25 3.7964935 -1.25q0.140625 0 0.4375 0.015625l0.0022735596 7.34375q1.6249695 -0.09375 2.484085 -0.921875q0.8591156 -0.828125 0.85873413 -2.0625q-2.746582E-4 -0.90625 -0.46922302 -1.546875q-0.48457336 -0.65625 -1.5471954 -1.046875zm-2.7014313 5.484375l-0.0017089844 -5.5q-1.2343292 0.109375 -1.8591766 0.625q-0.96850586 0.796875 -0.96810913 2.078125q3.5095215E-4 1.140625 0.7818451 1.9375q0.76586914 0.78125 2.0471497 0.859375zm5.872177 -9.110107l-9.859375 0l-4.5776367E-4 -1.5l1.40625 0q-1.6253357 -1.09375 -1.6259766 -3.140625q-2.746582E-4 -0.890625 0.32762146 -1.640625q0.31227112 -0.75 0.84339905 -1.109375q0.5155182 -0.375 1.2185974 -0.53125q0.46871948 -0.09375 1.6249695 -0.09375l6.0625 0l5.187988E-4 1.671875l-6.0 0q-1.015625 0 -1.515564 0.203125q-0.51556396 0.1875 -0.8122864 0.6875q-0.2967224 0.5 -0.29652405 1.171875q3.3569336E-4 1.0625 0.67245483 1.84375q0.6721039 0.765625 2.578354 0.765625l5.375 0l5.187988E-4 1.671875zm-1.5043335 -14.031952l1.4842987 -0.234375q0.14083862 0.703125 0.14102173 1.265625q2.746582E-4 0.90625 -0.28082275 1.40625q-0.2967224 0.5 -0.7497864 0.703125q-0.4686737 0.203125 -1.9842987 0.203125l-5.65625 0l3.8146973E-4 1.234375l-1.3125 0l-3.8146973E-4 -1.234375l-2.4375 0l-1.0005188 -1.65625l3.4375 0l-5.187988E-4 -1.6875l1.3125 0l5.187988E-4 1.6875l5.75 0q0.71875 0 0.9218445 -0.078125q0.20310974 -0.09375 0.32803345 -0.296875q0.124938965 -0.203125 0.12483215 -0.578125q-9.1552734E-5 -0.265625 -0.07835388 -0.734375zm-1.4377747 -0.8551941l-0.26612854 -1.65625q0.9999542 -0.140625 1.5310059 -0.765625q0.51542664 -0.640625 0.5150757 -1.78125q-3.5095215E-4 -1.15625 -0.4692688 -1.703125q-0.4689331 -0.5625 -1.0939331 -0.5625q-0.5625 0 -0.8904724 0.484375q-0.21864319 0.34375 -0.56196594 1.703125q-0.46818542 1.84375 -0.79608154 2.5625q-0.34353638 0.703125 -0.93717957 1.078125q-0.6092529 0.359375 -1.3280029 0.359375q-0.65625 0 -1.2188416 -0.296875q-0.5626068 -0.3125 -0.9377594 -0.828125q-0.28137207 -0.390625 -0.4847107 -1.0625q-0.20332336 -0.671875 -0.2035675 -1.4375q-3.6621094E-4 -1.171875 0.3431244 -2.046875q0.32785034 -0.875 0.9058533 -1.28125q0.5623627 -0.421875 1.5154419 -0.578125l0.21925354 1.625q-0.7499695 0.109375 -1.1716766 0.65625q-0.43733215 0.53125 -0.43702698 1.5q3.5095215E-4 1.15625 0.39112854 1.640625q0.3751526 0.484375 0.8751526 0.484375q0.328125 0 0.59368896 -0.203125q0.26556396 -0.203125 0.43730164 -0.640625q0.093673706 -0.25 0.43704224 -1.46875q0.46820068 -1.765625 0.76486206 -2.46875q0.29666138 -0.703125 0.8746643 -1.09375q0.5779877 -0.40625 1.4373627 -0.40625q0.828125 0 1.5782776 0.484375q0.7345276 0.484375 1.1410675 1.40625q0.39091492 0.921875 0.39126587 2.078125q5.950928E-4 1.921875 -0.79597473 2.9375q-0.79655457 1.0 -2.3589783 1.28125z" fill-rule="nonzero"></path></g></svg>

